<svg xmlns="http://www.w3.org/2000/svg" version="1.1" xmlns:xlink="http://www.w3.org/1999/xlink" viewBox="0 0 1422 800" style="overflow: hidden; display: block;" width="1422" height="800"><defs><linearGradient id="dddraw-gradient" x1="711" y1="-400" x2="711" y2="800" spreadMethod="pad" gradientUnits="userSpaceOnUse"><stop offset="0%" stop-color="hsl(305, 77%, 50%)" stop-opacity="1"></stop><stop offset="100%" stop-color="hsl(305, 77%, 80%)" stop-opacity="1"></stop></linearGradient></defs><g id="two-0" transform="matrix(1 0 0 1 0 0)" opacity="1"></g><path d="M 292.4001159667969 336.54054669436704 Q 292.4001159667969 336.54054669436704 313.76255655670167 336.8171158845804 335.12499714660646 337.0936850747938 372.69086027077105 337.2842956096413 410.2567233949356 337.4749061444887 486.10752770780937 337.60789397619305 561.9583320206832 337.7408818078973 638.134558333661 337.8345622096976 714.3107846466387 337.92824261149786 766.8385787598259 337.99472377952975 819.3663728730129 338.0612049475617 860.3140522044217 339.63575201955507 901.2617315358306 341.2102990915484 942.0126925325853 342.01930688922187 982.7636535293401 342.82831468689534 1001.4579405432812 343.62341835899304 1020.1522275572222 344.4185220310908 1036.2637605597788 344.4412386722353 1052.3752935623356 344.46395531337976 1060.9842263363726 348.65086551868137 1069.5931591104095 352.83777572398293 1068.7900122002443 352.70610220553647 1067.9868652900789 352.57442868708995 1067.267808073418 352.1931943838902 1066.5487508567574 351.8119600806905 1065.989068813998 351.2210803249186 1065.4293867712388 350.6302005691468 1065.0876787599996 349.8915406272092 1064.7459707487606 349.1528806852717 1064.6580136880207 348.3437784480766 1064.5700566272806 347.5346762108815 1064.7450596445174 346.7398448962454 1064.9200626617544 345.9450135816093 1065.339702894867 345.2476722379897 1065.75934312798 344.5503308943702 1066.3796841337876 344.0234913445243 1067.0000251395952 343.4966517946784 1067.7561170510353 343.1954742785473 1068.5122089624756 342.8942967624161 1069.3248887568316 342.8503146454417 1070.1375685511875 342.80633252846735 1070.921748439464 343.0241507499071 1071.7059283277401 343.2419689713469 1072.3795044686308 343.6987819059177 1073.0530806095212 344.15559484048845 1073.5455294032681 344.8035740533537 1074.0379781970148 345.45155326621904 1074.2977401249186 346.22285516274195 1074.5575020528224 346.99415705926486 1074.5573799724611 347.8080261272755 1074.5572578921 348.6218951952862 1074.2972645853201 349.39311912852327 1074.0372712785402 350.1643430617604 1073.5446281131926 350.8121745108307 1073.051984947845 351.460005959901 1072.3782717933873 351.916616801076 1071.7045586389293 352.3732276422509 1070.9203134404756 352.59081059992593 1070.136068242022 352.80839355760094 1069.3234016788715 352.7641676386711 1068.5107351157208 352.7199417197413 1067.7547335915583 352.4185373895931 1066.9987320673958 352.11713305944494 1066.3785491413662 351.5901074310079 1065.7583662153365 351.0630818025708 1065.3389352035074 350.36561459826356 1064.9195041916782 349.6681473939563 1064.7447396317075 348.87326361418326 1064.5699750717365 348.0783798344102 1064.658174859186 347.26930402074254 1064.7463746466353 346.4602282070748 1065.0883042404769 345.7216708107788 1065.4302338343184 344.9831134144828 1065.9900931158159 344.39240158991083 1066.5499523973135 343.8016897653389 1067.269123951906 343.4206711964565 1067.9882955064986 343.03965262757407 1068.791481882577 342.9082200591223 1069.5946682586557 342.7767874906706 1069.5939136845327 342.7767873774844 1069.5931591104095 342.7767872642983 1060.982874809417 346.9635853177614 1052.3725905084243 351.1503833712244 1036.1232954725067 351.16001783026366 1019.8740004365891 351.1696522893029 1001.2536147256062 350.4256757137251 982.6332290146232 349.6816991381474 941.8171236830127 348.9388771168054 901.0010183514022 348.19605509546335 860.183602439697 346.718822779029 819.3661865279918 345.24159046259456 766.8384855873153 345.3080716306265 714.3107846466387 345.3745527986584 638.134558333661 345.46823320045866 561.9583320206832 345.5619136022589 486.10752770780937 345.6949014339632 410.2567233949356 345.8278892656675 372.69086027077105 346.018499800515 335.12499714660646 346.2091103353624 313.76255655670167 346.48567952557585 292.4001159667969 346.7622487157892 291.7885435285443 346.6879879905705 291.1769710902918 346.61372726535177 290.60094327088507 346.3952611265345 290.02491545147836 346.17679498771724 289.517911014846 345.826820697554 289.0109065782136 345.4768464073908 288.6023926460341 345.0157044880694 288.1938787138546 344.554562568748 287.9075981350602 344.00905461028606 287.6213175562658 343.46354665182406 287.4739089715469 342.865377602398 287.326500386828 342.26720855297185 287.32653119005437 341.6511440258391 287.32656199328073 341.0350794987063 287.47403039416747 340.43692519312947 287.6214987950542 339.83877088755264 287.90783392321293 339.2932915598761 288.19416905137166 338.7478122321995 288.60272909570045 338.286711166577 289.01128914002925 337.8256101009544 289.51832857155557 337.4756865129847 290.0253680030819 337.1257629250149 290.6014176662223 336.90735439007176 291.1774673293627 336.6889458551287 291.7890471906299 336.614746287525 292.4006270518971 336.5405467199213 292.400371509347 336.54054670714413 Z" fill="url(#dddraw-gradient)"></path></svg>